<svg width="32" height="25" viewBox="0 0 32 25" fill="none" xmlns="http://www.w3.org/2000/svg">
<path d="M20.5333 0C20.2161 0.572581 19.9334 1.16391 19.6868 1.77077C17.2634 1.3845 14.7948 1.3845 12.3715 1.77077C12.1248 1.16391 11.8421 0.572581 11.5249 0C9.24215 0.393112 7.02298 1.09713 4.92836 2.09272C1.18275 7.54071 -0.515908 14.1548 0.136662 20.7502C2.57761 22.5996 5.31722 24.0101 8.23463 24.9195C8.89894 24.0351 9.49182 23.0984 10.0076 22.1185C9.05573 21.7648 8.14087 21.3172 7.27629 20.7824C7.51342 20.6233 7.73773 20.4457 7.94713 20.2511C10.4683 21.4751 13.2307 22.1107 16.0291 22.1107C18.8275 22.1107 21.59 21.4751 24.1111 20.2511C24.3347 20.4443 24.5584 20.6214 24.782 20.7824C23.9127 21.313 22.9987 21.7655 22.0507 22.1346C22.545 23.1367 23.1221 24.0952 23.7757 25C26.6895 24.0937 29.4243 22.6829 31.8577 20.8307C32.526 14.2341 30.8259 7.61459 27.066 2.17321C24.9949 1.15701 22.7977 0.426063 20.5333 0ZM10.7263 16.9833C9.92704 16.9254 9.18106 16.5578 8.64499 15.9575C8.10893 15.3571 7.82446 14.5709 7.8513 13.7637C7.82041 12.9554 8.10348 12.1669 8.64035 11.5657C9.17722 10.9645 9.92556 10.598 10.7263 10.5441C11.5271 10.598 12.2754 10.9645 12.8123 11.5657C13.3492 12.1669 13.6322 12.9554 13.6013 13.7637C13.6322 14.5719 13.3492 15.3605 12.8123 15.9617C12.2754 16.5629 11.5271 16.9294 10.7263 16.9833ZM21.3319 16.9833C20.5327 16.9254 19.7867 16.5578 19.2506 15.9575C18.7146 15.3571 18.4301 14.5709 18.4569 13.7637C18.426 12.9554 18.7091 12.1669 19.246 11.5657C19.7828 10.9645 20.5312 10.598 21.3319 10.5441C22.1342 10.594 22.8849 10.9593 23.4226 11.5614C23.9603 12.1635 24.242 12.9544 24.207 13.7637C24.242 14.573 23.9603 15.3638 23.4226 15.966C22.8849 16.5681 22.1342 16.9334 21.3319 16.9833Z" fill="white"/>
</svg>
